<svg width="32" height="32" viewBox="0 0 32 32" fill="none" xmlns="http://www.w3.org/2000/svg">
<path d="M19.4894 21.3747C17.0933 23.289 14.0551 24.2131 10.9989 23.9574C7.94263 23.7016 5.10033 22.2853 3.05569 19.9994C1.01106 17.7135 -0.0806929 14.7314 0.00465162 11.6657C0.0899962 8.59994 1.34596 5.68324 3.5146 3.5146C5.68324 1.34596 8.59994 0.0899962 11.6657 0.00465162C14.7314 -0.0806929 17.7135 1.01106 19.9994 3.05569C22.2853 5.10033 23.7016 7.94263 23.9574 10.9989C24.2131 14.0551 23.289 17.0933 21.3747 19.4894L31.609 29.7211C31.8594 29.9714 32 30.311 32 30.665C32 31.0191 31.8594 31.3586 31.609 31.609C31.3586 31.8594 31.0191 32 30.665 32C30.311 32 29.9714 31.8594 29.7211 31.609L19.4921 21.3747H19.4894ZM21.332 11.999C21.332 10.7734 21.0906 9.55976 20.6216 8.42742C20.1526 7.29509 19.4651 6.26623 18.5984 5.39958C17.7318 4.53293 16.7029 3.84546 15.5706 3.37643C14.4383 2.90741 13.2246 2.666 11.999 2.666C10.7734 2.666 9.55976 2.90741 8.42742 3.37643C7.29509 3.84546 6.26623 4.53293 5.39958 5.39958C4.53293 6.26623 3.84546 7.29509 3.37643 8.42742C2.90741 9.55976 2.666 10.7734 2.666 11.999C2.666 14.4743 3.6493 16.8482 5.39958 18.5984C7.14986 20.3487 9.52374 21.332 11.999 21.332C14.4743 21.332 16.8482 20.3487 18.5984 18.5984C20.3487 16.8482 21.332 14.4743 21.332 11.999Z" fill="#747474"/>
</svg>
