<svg width="30" height="32" viewBox="0 0 30 32" fill="none" xmlns="http://www.w3.org/2000/svg">
<path d="M9.90443 9.19145C9.90467 17.5125 16.6875 24.2456 25.041 24.2456C26.1299 24.2456 27.1909 24.132 28.2113 23.9147L28.213 23.9143C28.4192 23.8696 28.6341 23.8867 28.8307 23.9634C29.0273 24.0401 29.1969 24.173 29.3184 24.3456L29.3205 24.3485C29.4444 24.5217 29.5075 24.731 29.5002 24.9439C29.4928 25.1567 29.4152 25.3612 29.2796 25.5254L29.2775 25.5281C27.7558 27.3973 25.8361 28.9034 23.6584 29.9365C21.4806 30.9697 19.0998 31.5038 16.6895 31.5H16.6887C7.74155 31.5 0.5 24.2926 0.5 15.4193C0.5 8.74141 4.59875 3.01014 10.4405 0.580305L10.4405 0.580313L10.4431 0.579206C10.6433 0.494598 10.8655 0.477232 11.0764 0.529718C11.2873 0.582204 11.4755 0.701708 11.6127 0.870278L12.0005 0.554667L11.6144 0.872389C11.7461 1.0324 11.8268 1.22823 11.846 1.43457C11.8653 1.6409 11.8222 1.84827 11.7223 2.02987L11.7214 2.03158C10.525 4.22813 9.90023 6.69024 9.90443 9.19145ZM9.90443 9.19145C9.90443 9.19131 9.90443 9.19117 9.90443 9.19103H10.4044L9.90444 9.19188C9.90444 9.19174 9.90443 9.1916 9.90443 9.19145ZM1.55009 15.4188V15.4193L16.6887 29.9719L16.6878 30.4719C16.6881 30.4719 16.6884 30.4719 16.6887 30.4719C18.6895 30.4752 20.6711 30.0818 22.5188 29.3143C24.3668 28.5467 26.0443 27.4202 27.454 26L28.4738 24.9725L27.0373 25.1516C26.3843 25.2329 25.719 25.2737 25.041 25.2737C16.094 25.2737 8.85435 18.0665 8.85435 9.19303C8.85435 6.92867 9.32379 4.77446 10.1748 2.8204L9.7164 2.62075L9.48006 2.18014C7.08556 3.46455 5.08379 5.37373 3.6875 7.70477C2.29121 10.0358 1.55257 12.7016 1.55009 15.4188Z" stroke="white"/>
</svg>
